<svg width="2000" height="2000" viewBox="0 0 2000 2000" fill="none" xmlns="http://www.w3.org/2000/svg">
<g clip-path="url(#clip0_4_12)">
<rect x="1000" y="1960.6" width="378.079" height="133.3" transform="rotate(-90 1000 1960.6)" fill="white"/>
<path d="M191.912 1466.55C89.208 1288.66 48.0718 1081.86 74.8828 878.206C101.694 674.556 194.954 485.443 340.199 340.199C485.444 194.954 674.556 101.694 878.206 74.8828C1081.86 48.0718 1288.66 89.2081 1466.55 191.912C1644.44 294.615 1783.47 453.147 1862.07 642.918C1940.68 832.69 1954.47 1043.1 1901.31 1241.5C1848.14 1439.91 1731 1615.23 1568.04 1740.28C1405.07 1865.32 1205.41 1933.1 1000 1933.1" stroke="currentColor" stroke-width="133.3"/>
<path d="M700.075 1519.49C574.043 1446.72 478.762 1330.62 431.984 1192.82C385.205 1055.01 390.12 904.898 445.811 770.447C501.502 635.996 604.173 526.376 734.693 462.011C865.214 397.645 1014.68 382.924 1155.25 420.589C1295.82 458.255 1417.91 545.739 1498.76 666.741C1579.61 787.744 1613.71 934.013 1594.72 1078.3C1575.72 1222.58 1504.92 1355.04 1395.51 1450.99C1286.09 1546.94 1145.53 1599.85 1000 1599.85" stroke="currentColor" stroke-width="133.3"/>
<circle cx="1000" cy="1000" r="299.925" fill="currentColor"/>
</g>
<defs>
<clipPath id="clip0_4_12">
<rect width="2000" height="2000" fill="white"/>
</clipPath>
</defs>
</svg>
