<svg width="2000" height="2000" viewBox="0 0 2000 2000" fill="none" xmlns="http://www.w3.org/2000/svg">
<rect x="1000" y="1720.63" width="283.631" height="100" transform="rotate(-90 1000 1720.63)" fill="white"/>
<path d="M393.782 1350C316.735 1216.55 285.875 1061.41 305.989 908.632C326.102 755.856 396.064 613.986 505.025 505.025C613.986 396.064 755.856 326.102 908.632 305.989C1061.41 285.875 1216.55 316.735 1350 393.782C1483.45 470.829 1587.75 589.757 1646.72 732.122C1705.68 874.486 1716.03 1032.33 1676.15 1181.17C1636.27 1330.02 1548.38 1461.54 1426.13 1555.35C1303.88 1649.15 1154.09 1700 1000 1700" stroke="white" stroke-width="100"/>
<path d="M775 1389.71C680.453 1335.12 608.974 1248.03 573.881 1144.65C538.789 1041.27 542.475 928.656 584.254 827.792C626.033 726.929 703.055 644.693 800.97 596.407C898.885 548.121 1011.01 537.077 1116.47 565.333C1221.92 593.59 1313.51 659.219 1374.16 749.993C1434.82 840.768 1460.4 950.497 1446.15 1058.74C1431.9 1166.98 1378.79 1266.34 1296.71 1338.33C1214.62 1410.31 1109.17 1450 1000 1450" stroke="white" stroke-width="100"/>
<circle cx="1000" cy="1000" r="225" fill="white"/>
</svg>
